<svg xmlns="http://www.w3.org/2000/svg" viewBox="0 0 80 80"><path fill="#f78f8f" d="M0.5 11.5H79.5V66.5H0.5z"/><path fill="#c74343" d="M79,12v54H1V12H79 M80,11H0v56h80V11L80,11z"/><path fill="#fff" d="M25 17H79V21H25zM25 27H79V31H25zM.999 47H78.999V51H.999zM1.004 37H79.004V41H1.004zM1.004 57H79.004V61H1.004z"/><path fill="#8bb7f0" d="M0.5 11.5H39.5V40.5H0.5z"/><path fill="#4e7ab5" d="M39,12v28H1V12H39 M40,11H0v30h40V11L40,11z"/><path fill="#fff" d="M3.5 11.975L3.964 12.963 5 13.121 4.25 13.89 4.427 14.975 3.5 14.463 2.573 14.975 2.75 13.89 2 13.121 3.036 12.963zM18.5 11.975L18.964 12.963 20 13.121 19.25 13.89 19.427 14.975 18.5 14.463 17.573 14.975 17.75 13.89 17 13.121 18.036 12.963zM8.5 11.975L8.964 12.963 10 13.121 9.25 13.89 9.427 14.975 8.5 14.463 7.573 14.975 7.75 13.89 7 13.121 8.036 12.963zM23.5 11.975L23.964 12.963 25 13.121 24.25 13.89 24.427 14.975 23.5 14.463 22.573 14.975 22.75 13.89 22 13.121 23.036 12.963zM13.536 11.988L14 12.975 15.036 13.133 14.286 13.902 14.464 14.988 13.536 14.475 12.609 14.988 12.786 13.902 12.036 13.133 13.073 12.975zM6.5 15.975L6.964 16.963 8 17.121 7.25 17.89 7.427 18.975 6.5 18.463 5.573 18.975 5.75 17.89 5 17.121 6.036 16.963zM11.5 15.975L11.964 16.963 13 17.121 12.25 17.89 12.427 18.975 11.5 18.463 10.573 18.975 10.75 17.89 10 17.121 11.036 16.963zM33.536 11.988L34 12.975 35.036 13.133 34.286 13.902 34.464 14.988 33.536 14.475 32.609 14.988 32.786 13.902 32.036 13.133 33.073 12.975zM26.5 15.975L26.964 16.963 28 17.121 27.25 17.89 27.427 18.975 26.5 18.463 25.573 18.975 25.75 17.89 25 17.121 26.036 16.963zM31.5 15.975L31.964 16.963 33 17.121 32.25 17.89 32.427 18.975 31.5 18.463 30.573 18.975 30.75 17.89 30 17.121 31.036 16.963zM36.5 15.975L36.964 16.963 38 17.121 37.25 17.89 37.427 18.975 36.5 18.463 35.573 18.975 35.75 17.89 35 17.121 36.036 16.963zM3.5 19.975L3.964 20.963 5 21.121 4.25 21.89 4.427 22.975 3.5 22.463 2.573 22.975 2.75 21.89 2 21.121 3.036 20.963zM8.5 19.975L8.964 20.963 10 21.121 9.25 21.89 9.427 22.975 8.5 22.463 7.573 22.975 7.75 21.89 7 21.121 8.036 20.963zM13.5 19.975L13.964 20.963 15 21.121 14.25 21.89 14.427 22.975 13.5 22.463 12.573 22.975 12.75 21.89 12 21.121 13.036 20.963zM18.464 19.988L18.927 20.975 19.964 21.133 19.214 21.902 19.391 22.988 18.464 22.475 17.536 22.988 17.714 21.902 16.964 21.133 18 20.975zM23.5 19.975L23.964 20.963 25 21.121 24.25 21.89 24.427 22.975 23.5 22.463 22.573 22.975 22.75 21.89 22 21.121 23.036 20.963zM28.5 19.975L28.964 20.963 30 21.121 29.25 21.89 29.427 22.975 28.5 22.463 27.573 22.975 27.75 21.89 27 21.121 28.036 20.963zM33.5 19.975L33.964 20.963 35 21.121 34.25 21.89 34.427 22.975 33.5 22.463 32.573 22.975 32.75 21.89 32 21.121 33.036 20.963zM16.5 15.975L16.964 16.963 18 17.121 17.25 17.89 17.427 18.975 16.5 18.463 15.573 18.975 15.75 17.89 15 17.121 16.036 16.963zM21.5 15.975L21.964 16.963 23 17.121 22.25 17.89 22.427 18.975 21.5 18.463 20.573 18.975 20.75 17.89 20 17.121 21.036 16.963zM6.5 23.988L6.964 24.975 8 25.133 7.25 25.902 7.427 26.988 6.5 26.475 5.573 26.988 5.75 25.902 5 25.133 6.036 24.975zM11.5 23.988L11.964 24.975 13 25.133 12.25 25.902 12.427 26.988 11.5 26.475 10.573 26.988 10.75 25.902 10 25.133 11.036 24.975zM26.5 23.988L26.964 24.975 28 25.133 27.25 25.902 27.427 26.988 26.5 26.475 25.573 26.988 25.75 25.902 25 25.133 26.036 24.975zM31.5 23.988L31.964 24.975 33 25.133 32.25 25.902 32.427 26.988 31.5 26.475 30.573 26.988 30.75 25.902 30 25.133 31.036 24.975zM36.5 23.988L36.964 24.975 38 25.133 37.25 25.902 37.427 26.988 36.5 26.475 35.573 26.988 35.75 25.902 35 25.133 36.036 24.975zM3.5 27.988L3.964 28.975 5 29.133 4.25 29.902 4.427 30.988 3.5 30.475 2.573 30.988 2.75 29.902 2 29.133 3.036 28.975zM8.5 27.988L8.964 28.975 10 29.133 9.25 29.902 9.427 30.988 8.5 30.475 7.573 30.988 7.75 29.902 7 29.133 8.036 28.975zM13.5 27.988L13.964 28.975 15 29.133 14.25 29.902 14.427 30.988 13.5 30.475 12.573 30.988 12.75 29.902 12 29.133 13.036 28.975zM18.464 28L18.927 28.988 19.964 29.146 19.214 29.915 19.391 31 18.464 30.488 17.536 31 17.714 29.915 16.964 29.146 18 28.988zM23.5 27.988L23.964 28.975 25 29.133 24.25 29.902 24.427 30.988 23.5 30.475 22.573 30.988 22.75 29.902 22 29.133 23.036 28.975zM28.5 27.988L28.964 28.975 30 29.133 29.25 29.902 29.427 30.988 28.5 30.475 27.573 30.988 27.75 29.902 27 29.133 28.036 28.975zM33.5 27.988L33.964 28.975 35 29.133 34.25 29.902 34.427 30.988 33.5 30.475 32.573 30.988 32.75 29.902 32 29.133 33.036 28.975zM16.5 23.988L16.964 24.975 18 25.133 17.25 25.902 17.427 26.988 16.5 26.475 15.573 26.988 15.75 25.902 15 25.133 16.036 24.975zM21.5 23.988L21.964 24.975 23 25.133 22.25 25.902 22.427 26.988 21.5 26.475 20.573 26.988 20.75 25.902 20 25.133 21.036 24.975zM6.536 31.988L7 32.975 8.036 33.133 7.286 33.902 7.464 34.988 6.536 34.475 5.609 34.988 5.786 33.902 5.036 33.133 6.073 32.975zM11.536 31.988L12 32.975 13.036 33.133 12.286 33.902 12.464 34.988 11.536 34.475 10.609 34.988 10.786 33.902 10.036 33.133 11.073 32.975zM26.536 31.988L27 32.975 28.036 33.133 27.286 33.902 27.464 34.988 26.536 34.475 25.609 34.988 25.786 33.902 25.036 33.133 26.073 32.975zM31.536 31.988L32 32.975 33.036 33.133 32.286 33.902 32.464 34.988 31.536 34.475 30.609 34.988 30.786 33.902 30.036 33.133 31.073 32.975zM36.536 31.988L37 32.975 38.036 33.133 37.286 33.902 37.464 34.988 36.536 34.475 35.609 34.988 35.786 33.902 35.036 33.133 36.073 32.975zM3.536 35.988L4 36.975 5.036 37.133 4.286 37.902 4.464 38.988 3.536 38.475 2.609 38.988 2.786 37.902 2.036 37.133 3.073 36.975zM8.536 35.988L9 36.975 10.036 37.133 9.286 37.902 9.464 38.988 8.536 38.475 7.609 38.988 7.786 37.902 7.036 37.133 8.073 36.975zM13.536 35.988L14 36.975 15.036 37.133 14.286 37.902 14.464 38.988 13.536 38.475 12.609 38.988 12.786 37.902 12.036 37.133 13.073 36.975zM18.5 36L18.964 36.988 20 37.146 19.25 37.915 19.427 39 18.5 38.488 17.573 39 17.75 37.915 17 37.146 18.036 36.988zM23.536 35.988L24 36.975 25.036 37.133 24.286 37.902 24.464 38.988 23.536 38.475 22.609 38.988 22.786 37.902 22.036 37.133 23.073 36.975zM28.536 35.988L29 36.975 30.036 37.133 29.286 37.902 29.464 38.988 28.536 38.475 27.609 38.988 27.786 37.902 27.036 37.133 28.073 36.975zM33.536 35.988L34 36.975 35.036 37.133 34.286 37.902 34.464 38.988 33.536 38.475 32.609 38.988 32.786 37.902 32.036 37.133 33.073 36.975zM16.536 31.988L17 32.975 18.036 33.133 17.286 33.902 17.464 34.988 16.536 34.475 15.609 34.988 15.786 33.902 15.036 33.133 16.073 32.975zM21.536 31.988L22 32.975 23.036 33.133 22.286 33.902 22.464 34.988 21.536 34.475 20.609 34.988 20.786 33.902 20.036 33.133 21.073 32.975zM28.5 11.975L28.964 12.963 30 13.121 29.25 13.89 29.427 14.975 28.5 14.463 27.573 14.975 27.75 13.89 27 13.121 28.036 12.963z"/></svg>