<svg xmlns="http://www.w3.org/2000/svg" viewBox="0 0 80 80"><path fill="#f78f8f" d="M0.5 10.5H79.5V69.5H0.5z"/><path fill="#c74343" d="M79,11v58H1V11H79 M80,10H0v60h80V10L80,10z"/><g><path fill="#ffeea3" d="M33.754,32.672c-1.552-1.29-1.472-4.204-3.158-5.616c2.13,0.21,2.612,3.596,4.366,4.738 c0.036,0.024,0.058,0.046,0.084,0.068c-0.426,0.258-0.82,0.552-1.198,0.872C33.816,32.716,33.786,32.698,33.754,32.672z M35.054,31.858c0.422-0.254,0.848-0.498,1.308-0.688c-0.018-0.02-0.032-0.04-0.056-0.062c-1.554-1.404-1.5-4.822-3.57-5.364 c1.444,1.658,0.908,4.524,2.24,6.042C35.002,31.814,35.028,31.834,35.054,31.858z M36.376,31.166 c0.456-0.186,0.936-0.326,1.424-0.442c-0.018-0.028-0.03-0.054-0.056-0.086c-1.314-1.63-0.726-4.998-2.688-5.856 c1.166,1.864,0.19,4.612,1.268,6.318C36.34,31.126,36.358,31.144,36.376,31.166z M37.76,30.636 c0.014,0.034,0.032,0.058,0.048,0.086c0.478-0.112,0.976-0.166,1.478-0.202c-0.016-0.038-0.026-0.074-0.052-0.118 c-1.044-1.814,0.064-5.05-1.738-6.204C38.358,26.22,36.964,28.782,37.76,30.636z M31.154,36.312 c0.196-0.464,0.452-0.894,0.714-1.318c-0.028-0.006-0.05-0.014-0.084-0.018c-2.082-0.222-4.048-3.02-6.042-2.24 c2.142,0.494,3.396,3.126,5.364,3.57C31.124,36.31,31.138,36.31,31.154,36.312z M39.254,30.4c0.012,0.044,0.028,0.08,0.044,0.118 c0.236-0.018,0.462-0.07,0.704-0.07c0.268,0,0.518,0.058,0.78,0.078c-0.01-0.04-0.016-0.078-0.034-0.126 C40,28.444,41.6,25.422,40,24C40.534,26.134,38.756,28.444,39.254,30.4z M32.684,33.74c0.034,0.02,0.064,0.03,0.096,0.044 c0.326-0.376,0.68-0.72,1.06-1.042c-0.032-0.02-0.058-0.04-0.1-0.058c-1.91-0.854-2.916-4.124-5.054-3.998 C30.572,29.818,30.948,32.708,32.684,33.74z M30.71,37.74c0.12-0.484,0.25-0.964,0.44-1.414c-0.018,0-0.03-0.004-0.048-0.002 c-2.09,0.106-4.47-2.35-6.318-1.268c2.194,0.152,3.842,2.558,5.856,2.688C30.666,37.746,30.686,37.742,30.71,37.74z M31.794,34.962c0.028,0.012,0.054,0.016,0.08,0.022c0.266-0.424,0.572-0.816,0.898-1.192c-0.032-0.014-0.058-0.028-0.1-0.038 c-2.02-0.546-3.526-3.616-5.616-3.158C29.096,31.418,29.92,34.214,31.794,34.962z M47.268,33.842 c0.322,0.376,0.62,0.766,0.882,1.188c0.018-0.022,0.036-0.038,0.056-0.068c1.144-1.754,4.528-2.236,4.738-4.366 c-1.412,1.686-4.328,1.606-5.616,3.158C47.302,33.784,47.288,33.812,47.268,33.842z M42.25,30.74 c-0.002-0.034-0.002-0.064-0.01-0.104c-0.432-2.048,1.622-4.784,0.264-6.438c0.194,2.19-1.924,4.196-1.738,6.204 c0.004,0.046,0.016,0.084,0.026,0.126C41.286,30.568,41.776,30.626,42.25,30.74z M48.86,36.354 c0.19,0.456,0.324,0.938,0.442,1.426c0.02-0.014,0.038-0.02,0.058-0.038c1.63-1.314,4.998-0.726,5.856-2.688 c-1.864,1.166-4.612,0.19-6.318,1.268C48.884,36.334,48.874,36.344,48.86,36.354z M49.364,37.76 c-0.022,0.01-0.038,0.022-0.058,0.034c0.116,0.478,0.174,0.972,0.216,1.476c0.026-0.012,0.048-0.018,0.078-0.034 c1.814-1.044,5.05,0.064,6.204-1.738C53.78,38.358,51.218,36.964,49.364,37.76z M49.6,40.746C51.556,40,54.578,41.6,56,40 c-2.134,0.534-4.444-1.244-6.4-0.746c-0.03,0.008-0.052,0.02-0.078,0.028c0.02,0.256,0.078,0.504,0.078,0.766 c0,0.246-0.054,0.478-0.072,0.718C49.552,40.76,49.572,40.758,49.6,40.746z M48.156,35.04c0.258,0.418,0.508,0.844,0.698,1.3 c0.012-0.012,0.024-0.02,0.038-0.034c1.404-1.552,4.822-1.5,5.364-3.57c-1.658,1.444-4.526,0.908-6.042,2.24 C48.19,34.998,48.176,35.018,48.156,35.04z M43.684,31.186c0.464,0.192,0.894,0.442,1.318,0.702 c0.008-0.034,0.018-0.062,0.022-0.102c0.222-2.082,3.02-4.048,2.24-6.042c-0.494,2.142-3.126,3.396-3.57,5.364 C43.686,31.136,43.686,31.16,43.684,31.186z M42.26,30.744c0.484,0.118,0.96,0.25,1.412,0.438c0.002-0.028,0.006-0.048,0.004-0.08 c-0.106-2.09,2.35-4.47,1.268-6.318c-0.152,2.194-2.556,3.842-2.688,5.856C42.254,30.678,42.258,30.71,42.26,30.744z M45.038,31.794c-0.014,0.036-0.02,0.066-0.028,0.098c0.426,0.262,0.818,0.562,1.194,0.886c0.014-0.034,0.03-0.062,0.042-0.106 c0.546-2.02,3.616-3.526,3.158-5.616C48.582,29.096,45.786,29.92,45.038,31.794z M46.26,32.684 c-0.02,0.036-0.032,0.068-0.046,0.102c0.378,0.324,0.726,0.67,1.048,1.048c0.018-0.03,0.036-0.054,0.054-0.094 c0.854-1.91,4.124-2.916,3.998-5.054C50.182,30.572,47.292,30.948,46.26,32.684z M30.484,39.22c0.044-0.5,0.106-0.99,0.224-1.466 c-0.024,0.002-0.044,0.002-0.072,0.008c-2.048,0.432-4.782-1.622-6.438-0.264c2.19-0.194,4.196,1.924,6.204,1.738 C30.432,39.232,30.456,39.224,30.484,39.22z M46.216,47.308c-0.376,0.322-0.768,0.624-1.192,0.886 c0.006,0.004,0.008,0.008,0.014,0.012c1.754,1.144,2.236,4.528,4.366,4.738c-1.686-1.412-1.606-4.328-3.158-5.616 C46.236,47.318,46.226,47.314,46.216,47.308z M45.01,48.202c-0.42,0.258-0.848,0.51-1.308,0.702 c1.542,1.41,1.494,4.814,3.562,5.352c-1.444-1.658-0.908-4.526-2.24-6.042C45.018,48.21,45.014,48.206,45.01,48.202z M42.252,49.354c0.002,0.002,0.002,0.004,0.004,0.008c1.314,1.63,0.726,4.998,2.688,5.856c-1.164-1.86-0.194-4.6-1.262-6.308 C43.224,49.1,42.742,49.236,42.252,49.354z M42.24,49.364c-0.002-0.002-0.002-0.004-0.004-0.006 c-0.48,0.116-0.978,0.172-1.484,0.212c0.006,0.01,0.006,0.018,0.012,0.028c1.044,1.814-0.064,5.05,1.738,6.204 C41.642,53.78,43.036,51.218,42.24,49.364z M47.316,46.26c-0.014-0.008-0.026-0.012-0.038-0.018 c-0.324,0.38-0.672,0.73-1.05,1.056c0.012,0.006,0.018,0.012,0.032,0.018c1.91,0.854,2.916,4.124,5.054,3.998 C49.428,50.182,49.052,47.292,47.316,46.26z M49.32,42.258c-0.116,0.486-0.254,0.964-0.44,1.418c0.008,0,0.012,0.002,0.02,0.002 c2.09-0.106,4.47,2.35,6.318,1.268c-2.194-0.152-3.842-2.556-5.856-2.688C49.346,42.256,49.334,42.258,49.32,42.258z M40.746,49.6 c-0.002-0.01-0.008-0.018-0.01-0.028c-0.248,0.02-0.484,0.074-0.736,0.074c-0.258,0-0.502-0.056-0.754-0.076 c0.004,0.01,0.004,0.018,0.008,0.03C40,51.556,38.4,54.578,40,56C39.466,53.866,41.244,51.556,40.746,49.6z M49.526,40.778 c-0.038,0.498-0.092,0.99-0.202,1.464c0.014-0.002,0.026,0,0.042-0.004c2.048-0.432,4.782,1.622,6.438,0.264 c-2.19,0.192-4.196-1.924-6.204-1.738C49.572,40.766,49.55,40.774,49.526,40.778z M48.206,45.038 c-0.012-0.006-0.024-0.006-0.036-0.01c-0.262,0.428-0.56,0.822-0.884,1.202c0.014,0.006,0.024,0.012,0.04,0.016 c2.02,0.546,3.526,3.616,5.616,3.158C50.904,48.582,50.08,45.786,48.206,45.038z M48.874,43.69 c-0.192,0.466-0.438,0.9-0.698,1.324c0.014,0.002,0.022,0.006,0.038,0.008c2.082,0.222,4.048,3.02,6.042,2.24 c-2.142-0.494-3.396-3.126-5.364-3.57C48.886,43.692,48.88,43.692,48.874,43.69z M37.744,49.352 c-0.486-0.118-0.966-0.252-1.42-0.442c0.096,2.088-2.346,4.462-1.266,6.306c0.152-2.194,2.556-3.842,2.688-5.856 C37.744,49.358,37.744,49.356,37.744,49.352z M31.118,43.664c-0.186-0.458-0.328-0.938-0.444-1.43 c-0.012,0.008-0.022,0.012-0.034,0.022c-1.63,1.314-4.998,0.726-5.856,2.688c1.864-1.166,4.612-0.19,6.318-1.268 C31.108,43.672,31.11,43.668,31.118,43.664z M32.696,46.21c-0.322-0.38-0.618-0.776-0.878-1.202 c-0.008,0.012-0.016,0.018-0.024,0.03c-1.144,1.754-4.528,2.236-4.738,4.366c1.412-1.686,4.328-1.606,5.616-3.158 C32.682,46.234,32.688,46.222,32.696,46.21z M37.76,49.358c0,0.004,0,0.004,0,0.008c0.432,2.048-1.622,4.782-0.264,6.438 c-0.194-2.19,1.924-4.196,1.738-6.204c0-0.01-0.004-0.018-0.006-0.03C38.73,49.528,38.236,49.472,37.76,49.358z M30.636,42.24 c0.014-0.006,0.022-0.014,0.034-0.02c-0.112-0.48-0.164-0.98-0.2-1.486c-0.022,0.01-0.042,0.016-0.068,0.03 c-1.814,1.044-5.05-0.064-6.204,1.738C26.22,41.642,28.782,43.036,30.636,42.24z M31.812,44.994 c-0.256-0.422-0.5-0.852-0.69-1.316c-0.006,0.006-0.01,0.008-0.014,0.014c-1.404,1.554-4.822,1.5-5.364,3.57 c1.658-1.444,4.526-0.908,6.042-2.24C31.796,45.014,31.802,45.004,31.812,44.994z M30.4,40.746 c0.026-0.006,0.046-0.016,0.068-0.026c-0.016-0.226-0.068-0.444-0.068-0.674c0-0.28,0.058-0.542,0.082-0.816 c-0.028,0.008-0.05,0.01-0.082,0.022C28.444,40,25.422,38.4,24,40C26.134,39.466,28.444,41.244,30.4,40.746z M33.74,47.316 c0.006-0.012,0.01-0.022,0.016-0.032c-0.378-0.326-0.726-0.68-1.048-1.062c-0.008,0.014-0.016,0.022-0.022,0.038 c-0.854,1.91-4.124,2.916-3.998,5.054C29.818,49.428,32.708,49.05,33.74,47.316z M34.98,48.196c0,0.006-0.004,0.01-0.004,0.018 c-0.222,2.082-3.02,4.048-2.24,6.042c0.492-2.138,3.114-3.39,3.566-5.352C35.838,48.71,35.406,48.458,34.98,48.196z M34.962,48.206c0.002-0.006,0.002-0.01,0.004-0.016c-0.428-0.264-0.82-0.57-1.2-0.896c-0.004,0.012-0.01,0.02-0.014,0.034 c-0.546,2.02-3.616,3.526-3.158,5.616C31.418,50.904,34.214,50.08,34.962,48.206z M40.788,36.086 c0.156,0.108,0.3,0.232,0.45,0.346c0.186-0.114,0.366-0.234,0.558-0.338c-0.15-0.11-0.298-0.222-0.452-0.326 C41.154,35.868,40.972,35.978,40.788,36.086z M40,34.082c1.45-0.616,3.016-1.014,4.676-1.082 c-1.318-0.956-2.924-1.534-4.676-1.534s-3.36,0.58-4.676,1.534C36.984,33.068,38.55,33.466,40,34.082z M46.126,34.378 c-1.364,0.09-2.654,0.434-3.856,0.94c0.16,0.108,0.332,0.202,0.488,0.318c1.136-0.486,2.344-0.834,3.63-0.938 C46.258,34.52,46.074,34.316,46.126,34.378z M45.324,33.534c-1.548,0.064-3.02,0.412-4.382,0.976 c0.19,0.098,0.374,0.202,0.56,0.308c1.308-0.542,2.724-0.872,4.212-0.94C45.51,33.67,45.236,33.458,45.324,33.534z M47.502,42.158 C47.806,41.312,48,40.416,48,39.466c0-2.738-1.378-4.466-1.274-4.304c-1.196,0.134-2.318,0.49-3.372,0.968 C45.24,37.708,46.708,39.77,47.502,42.158z M39.562,36.918c0.156,0.114,0.288,0.256,0.438,0.378 c0.15-0.122,0.282-0.264,0.438-0.378C40.288,36.8,40.156,36.66,40,36.55C39.844,36.66,39.712,36.8,39.562,36.918z M40,34.978 c-0.2,0.102-0.408,0.188-0.602,0.3C39.6,35.382,39.804,35.48,40,35.594c0.196-0.114,0.4-0.212,0.602-0.316 C40.408,35.166,40.2,35.08,40,34.978z M43.314,46.4c0-3.112-1.282-5.902-3.314-7.946c-2.032,2.044-3.314,4.834-3.314,7.946 c0,0.114,0.014,0.226,0.018,0.338c1.008,0.458,2.118,0.728,3.296,0.728s2.29-0.27,3.296-0.728 C43.3,46.626,43.314,46.514,43.314,46.4z M37.542,36.572c-2.144,1.812-3.688,4.31-4.288,7.162c-0.174-0.274,0.098,0.19,0.638,0.83 c0.448-3.042,1.998-5.71,4.216-7.63C37.92,36.812,37.738,36.682,37.542,36.572z M39.36,37.86c-0.152-0.13-0.282-0.284-0.44-0.406 c-2.254,2.02-3.782,4.928-4.016,8.14c0.226,0.198,0.462,0.388,0.718,0.556C35.69,42.868,37.132,39.95,39.36,37.86z M41.08,37.454 c-0.158,0.122-0.29,0.276-0.44,0.406c2.23,2.09,3.672,5.008,3.74,8.29c0.254-0.162,0.49-0.35,0.716-0.544 C44.852,42.338,43.33,39.472,41.08,37.454z M46.746,43.732c-0.6-2.852-2.146-5.348-4.288-7.162 c-0.196,0.11-0.376,0.24-0.564,0.362c2.22,1.922,3.772,4.592,4.218,7.64C46.648,43.932,46.92,43.46,46.746,43.732z M33.61,34.698 c1.286,0.106,2.496,0.452,3.63,0.938c0.156-0.116,0.326-0.208,0.488-0.318c-1.202-0.506-2.49-0.85-3.856-0.94 C33.926,34.316,33.742,34.52,33.61,34.698z M36.646,36.13c-1.054-0.478-2.176-0.834-3.372-0.968C33.378,35,32,36.824,32,39.466 c0,0.948,0.194,1.846,0.498,2.69C33.292,39.77,34.76,37.708,36.646,36.13z M38.204,36.094c0.192,0.104,0.372,0.224,0.558,0.338 c0.152-0.114,0.294-0.238,0.45-0.346c-0.184-0.11-0.366-0.218-0.556-0.318C38.502,35.872,38.354,35.984,38.204,36.094z M38.498,34.818c0.184-0.108,0.37-0.21,0.56-0.308c-1.36-0.562-2.832-0.91-4.382-0.976c0.086-0.078-0.186,0.136-0.39,0.342 C35.774,33.946,37.192,34.278,38.498,34.818z"/></g></svg>