<svg xmlns="http://www.w3.org/2000/svg" viewBox="0 0 100 100"><path fill="#fefdef" d="M11,25v50c0,2.209,1.791,4,4,4h70c2.209,0,4-1.791,4-4V25c0-2.209-1.791-4-4-4H15C12.791,21,11,22.791,11,25z"/><path fill="#78a1d1" d="M11,40v35c0,2.209,1.791,4,4,4h70c2.209,0,4-1.791,4-4V40H11z"/><path fill="#f27c7c" d="M11,60v15c0,2.209,1.791,4,4,4h70c2.209,0,4-1.791,4-4V60H11z"/><path fill="#1f212b" d="M85,80H15c-2.757,0-5-2.243-5-5V25c0-2.757,2.243-5,5-5h70c2.757,0,5,2.243,5,5v50C90,77.757,87.757,80,85,80z M15,22c-1.654,0-3,1.346-3,3v50c0,1.654,1.346,3,3,3h70c1.654,0,3-1.346,3-3V25c0-1.654-1.346-3-3-3H15z"/><path fill="#1f212b" d="M70.5,41h-59c-0.276,0-0.5-0.224-0.5-0.5s0.224-0.5,0.5-0.5h59c0.276,0,0.5,0.224,0.5,0.5S70.776,41,70.5,41z"/><path fill="#1f212b" d="M81.5,41h-8c-0.276,0-0.5-0.224-0.5-0.5s0.224-0.5,0.5-0.5h8c0.276,0,0.5,0.224,0.5,0.5S81.776,41,81.5,41z"/><path fill="#1f212b" d="M85.5,41h-1c-0.276,0-0.5-0.224-0.5-0.5s0.224-0.5,0.5-0.5h1c0.276,0,0.5,0.224,0.5,0.5S85.776,41,85.5,41z"/><path fill="#1f212b" d="M88.5,60h-77c-0.276,0-0.5-0.224-0.5-0.5s0.224-0.5,0.5-0.5h77c0.276,0,0.5,0.224,0.5,0.5S88.776,60,88.5,60z"/></svg>