<svg xmlns="http://www.w3.org/2000/svg" viewBox="0 0 64 64"><linearGradient id="pSOkQz8Te9XZnQnlUO5aUa" x1="32" x2="32" y1="5.25" y2="59.001" gradientUnits="userSpaceOnUse" spreadMethod="reflect"><stop offset="0" stop-color="#1a6dff"/><stop offset="1" stop-color="#c822ff"/></linearGradient><path fill="url(#pSOkQz8Te9XZnQnlUO5aUa)" d="M33.715,50.03c1.302-3.573,4.21-6.571,7.247-9.696C45.405,35.763,50,31.036,50,24 c0-9.925-8.075-18-18-18s-18,8.075-18,18c0,7.036,4.595,11.763,9.038,16.334c3.037,3.125,5.946,6.123,7.247,9.696 C24.128,50.233,21,51.563,21,54c0,2.654,3.701,4,11,4s11-1.346,11-4C43,51.563,39.872,50.233,33.715,50.03z M16,24 c0-8.822,7.178-16,16-16s16,7.178,16,16c0,6.225-4.115,10.458-8.472,14.94c-2.967,3.052-6.005,6.178-7.528,9.972 c-1.523-3.794-4.562-6.92-7.528-9.972C20.115,34.458,16,30.225,16,24z M32,56c-6.604,0-9-1.196-9-2c0-0.754,2.11-1.854,7.826-1.986 c0.059,0.332,0.102,0.669,0.131,1.012c-1.949,0.089-4.29,0.413-4.29,0.974c0,0.667,3.308,1,5.333,1s5.333-0.333,5.333-1 c0-0.561-2.341-0.885-4.29-0.974c0.029-0.343,0.072-0.681,0.131-1.012C38.89,52.146,41,53.246,41,54C41,54.804,38.604,56,32,56z"/><linearGradient id="pSOkQz8Te9XZnQnlUO5aUb" x1="32" x2="32" y1="5.25" y2="59.001" gradientUnits="userSpaceOnUse" spreadMethod="reflect"><stop offset="0" stop-color="#1a6dff"/><stop offset="1" stop-color="#c822ff"/></linearGradient><path fill="url(#pSOkQz8Te9XZnQnlUO5aUb)" d="M40,24c0-4.411-3.589-8-8-8s-8,3.589-8,8s3.589,8,8,8S40,28.411,40,24z M26,24 c0-3.309,2.691-6,6-6s6,2.691,6,6s-2.691,6-6,6S26,27.309,26,24z"/><linearGradient id="pSOkQz8Te9XZnQnlUO5aUc" x1="38" x2="38" y1="5.25" y2="59.001" gradientUnits="userSpaceOnUse" spreadMethod="reflect"><stop offset="0" stop-color="#1a6dff"/><stop offset="1" stop-color="#c822ff"/></linearGradient><path fill="url(#pSOkQz8Te9XZnQnlUO5aUc)" d="M42,24h2c0-6.617-5.383-12-12-12v2C37.514,14,42,18.486,42,24z"/><linearGradient id="pSOkQz8Te9XZnQnlUO5aUd" x1="32" x2="32" y1="20.125" y2="28.508" gradientUnits="userSpaceOnUse" spreadMethod="reflect"><stop offset="0" stop-color="#6dc7ff"/><stop offset="1" stop-color="#e6abff"/></linearGradient><path fill="url(#pSOkQz8Te9XZnQnlUO5aUd)" d="M32 20A4 4 0 1 0 32 28A4 4 0 1 0 32 20Z"/></svg>
